<?xml version="1.0" encoding="UTF-8" standalone="no"?>
<!DOCTYPE svg PUBLIC "-//W3C//DTD SVG 1.1//EN"
 "http://www.w3.org/Graphics/SVG/1.1/DTD/svg11.dtd">
<!-- Generated by graphviz version 2.43.0 (0)
 -->
<!-- Title: %3 Pages: 1 -->
<svg width="1056pt" height="404pt"
 viewBox="0.00 0.00 1055.75 404.00" xmlns="http://www.w3.org/2000/svg" xmlns:xlink="http://www.w3.org/1999/xlink">
<g id="graph0" class="graph" transform="scale(1 1) rotate(0) translate(4 400)">
<title>%3</title>
<polygon fill="white" stroke="transparent" points="-4,4 -4,-400 1051.75,-400 1051.75,4 -4,4"/>
<!-- [root] aws_instance.ec2 (expand) -->
<g id="node1" class="node">
<title>[root] aws_instance.ec2 (expand)</title>
<polygon fill="none" stroke="black" points="558.93,-252 418.93,-252 418.93,-216 558.93,-216 558.93,-252"/>
<text text-anchor="middle" x="488.93" y="-230.3" font-family="Times,serif" font-size="14.00">aws_instance.ec2</text>
</g>
<!-- [root] aws_subnet.subnet (expand) -->
<g id="node2" class="node">
<title>[root] aws_subnet.subnet (expand)</title>
<polygon fill="none" stroke="black" points="565.43,-180 412.43,-180 412.43,-144 565.43,-144 565.43,-180"/>
<text text-anchor="middle" x="488.93" y="-158.3" font-family="Times,serif" font-size="14.00">aws_subnet.subnet</text>
</g>
<!-- [root] aws_instance.ec2 (expand)&#45;&gt;[root] aws_subnet.subnet (expand) -->
<g id="edge1" class="edge">
<title>[root] aws_instance.ec2 (expand)&#45;&gt;[root] aws_subnet.subnet (expand)</title>
<path fill="none" stroke="black" d="M488.93,-215.7C488.93,-207.98 488.93,-198.71 488.93,-190.11"/>
<polygon fill="black" stroke="black" points="492.43,-190.1 488.93,-180.1 485.43,-190.1 492.43,-190.1"/>
</g>
<!-- [root] aws_vpc.vpc (expand) -->
<g id="node3" class="node">
<title>[root] aws_vpc.vpc (expand)</title>
<polygon fill="none" stroke="black" points="541.43,-108 436.43,-108 436.43,-72 541.43,-72 541.43,-108"/>
<text text-anchor="middle" x="488.93" y="-86.3" font-family="Times,serif" font-size="14.00">aws_vpc.vpc</text>
</g>
<!-- [root] aws_subnet.subnet (expand)&#45;&gt;[root] aws_vpc.vpc (expand) -->
<g id="edge2" class="edge">
<title>[root] aws_subnet.subnet (expand)&#45;&gt;[root] aws_vpc.vpc (expand)</title>
<path fill="none" stroke="black" d="M488.93,-143.7C488.93,-135.98 488.93,-126.71 488.93,-118.11"/>
<polygon fill="black" stroke="black" points="492.43,-118.1 488.93,-108.1 485.43,-118.1 492.43,-118.1"/>
</g>
<!-- [root] provider[&quot;registry.terraform.io/hashicorp/aws&quot;] -->
<g id="node4" class="node">
<title>[root] provider[&quot;registry.terraform.io/hashicorp/aws&quot;]</title>
<polygon fill="none" stroke="black" points="488.93,-36 163.67,-18 488.93,0 814.19,-18 488.93,-36"/>
<text text-anchor="middle" x="488.93" y="-14.3" font-family="Times,serif" font-size="14.00">provider[&quot;registry.terraform.io/hashicorp/aws&quot;]</text>
</g>
<!-- [root] aws_vpc.vpc (expand)&#45;&gt;[root] provider[&quot;registry.terraform.io/hashicorp/aws&quot;] -->
<g id="edge3" class="edge">
<title>[root] aws_vpc.vpc (expand)&#45;&gt;[root] provider[&quot;registry.terraform.io/hashicorp/aws&quot;]</title>
<path fill="none" stroke="black" d="M488.93,-71.7C488.93,-63.98 488.93,-54.71 488.93,-46.11"/>
<polygon fill="black" stroke="black" points="492.43,-46.1 488.93,-36.1 485.43,-46.1 492.43,-46.1"/>
</g>
<!-- [root] meta.count&#45;boundary (EachMode fixup) -->
<g id="node5" class="node">
<title>[root] meta.count&#45;boundary (EachMode fixup)</title>
<ellipse fill="none" stroke="black" cx="222.93" cy="-306" rx="222.86" ry="18"/>
<text text-anchor="middle" x="222.93" y="-302.3" font-family="Times,serif" font-size="14.00">[root] meta.count&#45;boundary (EachMode fixup)</text>
</g>
<!-- [root] meta.count&#45;boundary (EachMode fixup)&#45;&gt;[root] aws_instance.ec2 (expand) -->
<g id="edge4" class="edge">
<title>[root] meta.count&#45;boundary (EachMode fixup)&#45;&gt;[root] aws_instance.ec2 (expand)</title>
<path fill="none" stroke="black" d="M284.96,-288.68C323.54,-278.52 373.38,-265.41 414.13,-254.68"/>
<polygon fill="black" stroke="black" points="415.24,-258.01 424.02,-252.08 413.46,-251.24 415.24,-258.01"/>
</g>
<!-- [root] provider[&quot;registry.terraform.io/hashicorp/aws&quot;] (close) -->
<g id="node6" class="node">
<title>[root] provider[&quot;registry.terraform.io/hashicorp/aws&quot;] (close)</title>
<ellipse fill="none" stroke="black" cx="755.93" cy="-306" rx="291.65" ry="18"/>
<text text-anchor="middle" x="755.93" y="-302.3" font-family="Times,serif" font-size="14.00">[root] provider[&quot;registry.terraform.io/hashicorp/aws&quot;] (close)</text>
</g>
<!-- [root] provider[&quot;registry.terraform.io/hashicorp/aws&quot;] (close)&#45;&gt;[root] aws_instance.ec2 (expand) -->
<g id="edge5" class="edge">
<title>[root] provider[&quot;registry.terraform.io/hashicorp/aws&quot;] (close)&#45;&gt;[root] aws_instance.ec2 (expand)</title>
<path fill="none" stroke="black" d="M692.65,-288.41C654.05,-278.29 604.49,-265.3 563.91,-254.66"/>
<polygon fill="black" stroke="black" points="564.63,-251.23 554.07,-252.08 562.86,-258 564.63,-251.23"/>
</g>
<!-- [root] root -->
<g id="node7" class="node">
<title>[root] root</title>
<ellipse fill="none" stroke="black" cx="488.93" cy="-378" rx="58.49" ry="18"/>
<text text-anchor="middle" x="488.93" y="-374.3" font-family="Times,serif" font-size="14.00">[root] root</text>
</g>
<!-- [root] root&#45;&gt;[root] meta.count&#45;boundary (EachMode fixup) -->
<g id="edge6" class="edge">
<title>[root] root&#45;&gt;[root] meta.count&#45;boundary (EachMode fixup)</title>
<path fill="none" stroke="black" d="M445.9,-365.68C405.18,-354.96 343.28,-338.67 295.03,-325.97"/>
<polygon fill="black" stroke="black" points="295.82,-322.56 285.26,-323.4 294.04,-329.33 295.82,-322.56"/>
</g>
<!-- [root] root&#45;&gt;[root] provider[&quot;registry.terraform.io/hashicorp/aws&quot;] (close) -->
<g id="edge7" class="edge">
<title>[root] root&#45;&gt;[root] provider[&quot;registry.terraform.io/hashicorp/aws&quot;] (close)</title>
<path fill="none" stroke="black" d="M531.83,-365.75C572.44,-355.11 634.24,-338.9 682.66,-326.21"/>
<polygon fill="black" stroke="black" points="683.68,-329.56 692.47,-323.64 681.91,-322.79 683.68,-329.56"/>
</g>
</g>
</svg>
